<?xml version="1.0" standalone="no"?><!DOCTYPE svg PUBLIC "-//W3C//DTD SVG 1.1//EN" "http://www.w3.org/Graphics/SVG/1.1/DTD/svg11.dtd"><svg t="1681194063513" class="icon" viewBox="0 0 1024 1024" version="1.1" xmlns="http://www.w3.org/2000/svg" p-id="4485" xmlns:xlink="http://www.w3.org/1999/xlink" width="200" height="200"><path d="M972.8 206.112821a51.2 51.2 0 0 1 51.2 51.2v665.6a51.2 51.2 0 0 1-51.2 51.2H51.2A51.2 51.2 0 0 1 0 922.912821V257.312821a51.2 51.2 0 0 1 51.2-51.2h921.6zM507.142564 612.483282c-14.70359 34.566564-27.661128 60.78359-38.925128 78.70359 5.12 7.469949 10.555077 14.073436 16.029538 19.954872 5.474462 5.842051 10.804513 10.909538 15.714462 15.36 5.028103 4.411077 10.60759 8.205128 16.909128 11.474051 6.301538 3.334564 11.867897 6.144 16.580923 8.297026 4.818051 2.258051 10.857026 3.990974 18.077539 5.382564 12.694974 2.70441 25.6 4.201026 38.54441 4.502974 8.55959 0.301949 15.465026 0.393846 20.84759 0.301949 5.382564-0.157538 13.049436-0.157538 23.197538-0.301949l24.20841-0.105026v55.296a8.927179 8.927179 0 0 0 2.717539 6.445949 8.690872 8.690872 0 0 0 6.393436 2.717539 8.795897 8.795897 0 0 0 6.511589-2.56l91.490462-92.370052a8.861538 8.861538 0 0 0 2.56-6.550974 8.205128 8.205128 0 0 0-2.56-6.393436l-91.136-91.897436a10.633846 10.633846 0 0 0-6.866051-2.92759 8.704 8.704 0 0 0-8.507077 5.566359 8.874667 8.874667 0 0 0-0.603898 3.544616v55.296h-73.110974a63.908103 63.908103 0 0 1-23.341949-4.096 65.010872 65.010872 0 0 1-18.025025-10.082462 82.432 82.432 0 0 1-14.546052-16.384 191.277949 191.277949 0 0 1-11.565948-18.274461l-5.435077-10.397539-5.172513-10.502564zM667.372308 359.712821a8.704 8.704 0 0 0-8.900923 6.761025l-0.210052 2.454975v55.296H585.124103a137.833026 137.833026 0 0 0-66.966975 16.896 118.495179 118.495179 0 0 0-25.810051 19.718564 230.583795 230.583795 0 0 0-21.13641 23.958974 255.172923 255.172923 0 0 0-18.28759 28.777026c-5.500718 9.859282-10.633846 19.941744-15.36 30.194871-3.938462 8.704-8.704 19.469128-14.178462 32.11159-8.756513 20.886974-16.173949 37.376-22.265436 49.204513-3.859692 7.693128-8.152615 15.163077-12.865641 22.370462a117.405538 117.405538 0 0 1-14.532923 17.723076 56.766359 56.766359 0 0 1-19.705436 12.891898 69.343179 69.343179 0 0 1-24.891076 4.358564h-64a8.769641 8.769641 0 0 0-9.110975 9.216v55.296a8.874667 8.874667 0 0 0 5.540103 8.507077c1.115897 0.446359 2.323692 0.65641 3.518359 0.603897h64a136.297026 136.297026 0 0 0 67.085128-16.896 118.285128 118.285128 0 0 0 25.691897-19.757948 239.340308 239.340308 0 0 0 21.254564-23.972103 231.844103 231.844103 0 0 0 18.169436-28.763897c6.354051-11.526564 11.526564-21.609026 15.465026-30.208 3.885949-8.704 8.598974-19.456 14.125949-32.11159 8.756513-20.886974 16.187077-37.270974 22.278564-49.204513 4.555487-8.84841 8.795897-16.278974 12.8-22.370461 4.292923-6.354051 9.176615-12.288 14.585436-17.723077a56.057436 56.057436 0 0 1 19.718564-12.891898 68.778667 68.778667 0 0 1 24.877949-4.358564h73.216v55.296a9.058462 9.058462 0 0 0 2.717538 6.51159 8.690872 8.690872 0 0 0 6.393436 2.651897 8.795897 8.795897 0 0 0 6.51159-2.56l91.490461-92.30441a8.861538 8.861538 0 0 0 2.56-6.564103 8.402051 8.402051 0 0 0-2.56-6.43282l-91.241025-91.766154a10.646974 10.646974 0 0 0-6.800411-2.914461z m-338.221949 64.262564h-63.947487a8.704 8.704 0 0 0-8.533334 5.592615 8.861538 8.861538 0 0 0-0.577641 3.570872v55.296a8.874667 8.874667 0 0 0 5.566359 8.625231 8.704 8.704 0 0 0 3.544616 0.590769h64a66.625641 66.625641 0 0 1 41.314461 14.230974c4.818051 3.938462 9.675487 9.412923 14.546052 16.331487 4.857436 6.905436 8.704 13.049436 11.565948 18.326975 2.92759 5.330051 6.354051 12.288 10.60759 20.886974 14.637949-34.763487 27.648-60.980513 39.05641-78.637949-30.457436-43.270564-69.579487-64.918974-117.090461-64.827077h-0.052513zM864.62359 52.512821a51.2 51.2 0 0 1 51.2 51.2v51.2H96.62359V103.712821a51.2 51.2 0 0 1 51.2-51.2h716.8z" p-id="4486"></path></svg>